<svg
    width="100"
    height="21"
    viewBox="0 0 128 27"
    fill="none"
    xmlns="http://www.w3.org/2000/svg"
>
    <path
        d="M112.74 21.421H127.754C127.89 21.421 128 21.5282 128
        21.6612V24.9436C128 25.0766 127.89 25.1839 127.754
        25.1839H112.74C112.603 25.1839 112.493 25.0766 112.493
        24.9436V21.6612C112.493 21.5282 112.603 21.421 112.74 21.421Z"
        fill="#FF4F71"
    ></path>
    <path
        d="M14.8598 21.0176C14.9522 21.1163 14.9478 21.2665 14.8466
        21.3566C14.7982 21.3995 14.741 21.4209 14.675 21.4209H10.8951C10.8247
        21.4209 10.7587 21.3909 10.7103 21.3394L3.72264 13.659V21.1764C3.71824
        21.3094 3.60824 21.4166 3.47183 21.4209H0.246417C0.110008 21.4166 0
        21.3094 0 21.1764V1.16451C0 1.05724 0.0748048 0.962845 0.180412
        0.93281L3.40142 0.0103098C3.53343 -0.0283066 3.67424 0.0446352 3.71384
        0.177647C3.72264 0.199101 3.72264 0.224845 3.72264
        0.246298V12.0457L10.3231 4.70434C10.3671 4.64856 10.4375 4.61853 10.5079
        4.61853H14.3801C14.5166 4.61853 14.6266 4.7215 14.631 4.85452C14.631
        4.91459 14.609 4.97466 14.565 5.02185L7.37488 12.8524L14.8598
        21.0176ZM69.4717 4.61424H65.4455V0.246298C65.4411 0.113286 65.3267
        0.00172826 65.1903 0.00601897C65.1683 0.00601897 65.1507 0.0103091
        65.1287 0.0145998L61.9033 0.93281C61.802 0.967136 61.7272 1.05724
        61.7272 1.16451V4.59707H58.823C58.6866 4.59707 58.5766 4.70434 58.5766
        4.83735V4.84164V7.84514C58.5766 7.97815 58.6866 8.08542 58.823
        8.08542H61.7492V16.1519C61.7492 20.4426 63.9494 22.0216 69.5158
        21.4166C69.6434 21.4038 69.7402 21.3008 69.7402 21.1764V18.3874C69.7402
        18.2544 69.6302 18.1471 69.4938 18.1471C69.4893 18.1471 69.4806 18.1471
        69.4762 18.1471C66.836 18.2673 65.4675 18.2329 65.4675
        16.1519V8.10687H69.4938C69.6302 8.10687 69.7402 7.9996 69.7402
        7.86659V4.8631C69.7446 4.73008 69.639 4.61853 69.5026 4.61424C69.4938
        4.61424 69.4806 4.61424 69.4717 4.61424ZM89.6251 13.0541C89.6207 13.4703
        89.5855 13.8822 89.5283 14.2941C89.5063 14.4485 89.3699 14.5644 89.2114
        14.5644H75.8302C75.8126 14.5644 75.795 14.5773 75.795 14.5987C75.795
        14.603 75.795 14.6073 75.795 14.6073C76.3934 17.1817 78.5539 18.529
        81.2953 18.529C82.9322 18.5848 84.5031 17.9068 85.5592 16.6883C85.6648
        16.5553 85.8496 16.5209 85.9992 16.5982L88.4722 18.0098C88.635 18.0999
        88.6966 18.3059 88.5998 18.4646C88.5954 18.4732 88.5866 18.4818 88.5822
        18.4947C86.9805 20.5971 84.4811 21.8543 81.2513 21.8543C75.5661 21.8543
        71.8831 18.0613 71.8831 13.0197C71.8831 8.0468 75.5661 4.18517 80.9785
        4.18517C86.1048 4.18517 89.6251 8.21414 89.6251 13.0541ZM85.8628
        11.5652C85.3348 8.70757 83.1743 7.47614 80.9433 7.47614C78.1667 7.47614
        76.279 9.07228 75.7466 11.5652C75.7422 11.5823 75.751 11.6038 75.773
        11.6081C75.7774 11.6081 75.7774 11.6081 75.7818 11.6081H85.8276C85.8452
        11.6124 85.8672 11.6038 85.8716 11.5866C85.8716 11.5781 85.8716 11.5738
        85.8716 11.5652H85.8628ZM102.144 4.18517C99.7985 4.18517 97.9372 5.04331
        96.8019 6.75959V4.8631C96.8019 4.73008 96.6875 4.61853 96.5511
        4.61853H93.3301C93.1937 4.61853 93.0793 4.73008 93.0793
        4.8631V21.1678C93.0793 21.3008 93.1937 21.4123 93.3301
        21.4123H96.5511C96.6875 21.4123 96.8019 21.3008 96.8019
        21.1678V12.4147C96.8019 8.98218 98.7293 7.57482 101.176 7.57482C103.521
        7.57482 105.035 8.9221 105.035 11.4751V21.1764C105.039 21.3094 105.149
        21.4166 105.286 21.4209H108.546C108.683 21.4166 108.793 21.3094 108.793
        21.1764V11.1061C108.771 6.73814 106.016 4.18517 102.157
        4.18517H102.144ZM33.8822 4.8631V21.1678C33.8822 21.3008 33.7722 21.4081
        33.6358 21.4123H30.4104C30.274 21.4081 30.164 21.3008 30.1596
        21.1678V19.001C28.7471 20.9146 26.7494 21.8543 24.1312 21.8543C21.8254
        21.88 19.6165 20.9447 18.0676 19.2799C16.4043 17.5979 15.4978 15.3367
        15.555 12.9983C15.4934 10.6598 16.3999 8.39435 18.0676 6.71668C19.6209
        5.05189 21.8254 4.11652 24.1312 4.14226C26.7714 4.14226 28.7471 5.08192
        30.1596 6.96554V4.82019C30.164 4.68718 30.274 4.57991 30.4104
        4.57562H33.6358C33.7722 4.57562 33.8866 4.68718 33.8866 4.82019C33.8866
        4.83306 33.8866 4.85022 33.8822 4.8631ZM30.1596 13.0154C30.208 11.5866
        29.6447 10.2007 28.6107 9.18813C26.4501 7.1243 22.9871 7.1243 20.8266
        9.18813C19.7881 10.2007 19.2293 11.5866 19.2733 13.0154C19.2337 14.4528
        19.7969 15.8473 20.8266 16.8771C23.0091 18.8894 26.4281 18.8894 28.6107
        16.8771C29.6403 15.8473 30.1992 14.4571 30.1596 13.0197V13.0154ZM54.612
        6.76817C56.2797 8.43726 57.1861 10.6899 57.1289 13.0154C57.1905 15.3539
        56.2841 17.6194 54.612 19.297C53.0631 20.9618 50.8541 21.8972 48.5484
        21.8715C45.9082 21.8715 43.9325 20.9318 42.52 19.0525V26.7028C42.52
        26.8358 42.41 26.9431 42.2736 26.9474H39.0482C38.9117 26.9474 38.7973
        26.8358 38.7973 26.7028V4.8631C38.7973 4.73008 38.9117 4.61853 39.0482
        4.61853H42.2736C42.41 4.62282 42.52 4.73008 42.52 4.8631V7.03849C43.9325
        5.12483 45.9302 4.18517 48.5484 4.18517C50.8541 4.168 53.0587 5.10767
        54.612 6.77246V6.76817ZM53.4063 13.0154C53.4547 11.5866 52.8915 10.2007
        51.8574 9.18813C49.6925 7.1243 46.2338 7.1243 44.0689 9.18813C43.0392
        10.205 42.4892 11.5909 42.542 13.0197C42.5024 14.4571 43.0612 15.8516
        44.0909 16.8814C46.2778 18.8937 49.6925 18.8937 51.8794 16.8814C52.9003
        15.8473 53.4503 14.4528 53.4063 13.0197V13.0154Z"
        fill="#2d66a5"
    ></path>
</svg>
